<svg xmlns="http://www.w3.org/2000/svg" width="53.722" height="41.635" viewBox="0 0 53.722 41.635"><path d="M442.469,397.389a1.5,1.5,0,0,0-2.077-.412l-24.57,16.461-3.15-2.095,25.778-17.275a1.5,1.5,0,0,0-1.665-2.492l-26.817,17.971-3.133-2.084,28.007-18.8a1.5,1.5,0,0,0-1.664-2.492l-29.045,19.491-3.178-2.112,30.28-20.288a1.5,1.5,0,0,0-1.666-2.493L415.8,390l-3.14-2.1,14.969-10.029a1.5,1.5,0,0,0-1.664-2.492L415.8,382.183l-10.163-6.809a1.5,1.5,0,0,0-1.664,2.492l9.135,6.121-3.141,2.1-7.936-5.318a1.5,1.5,0,0,0-1.666,2.493l12.743,8.538-3.141,2.1-11.544-7.734a1.5,1.5,0,0,0-1.664,2.492l10.515,7.045-3.141,2.1-9.315-6.241a1.5,1.5,0,0,0-1.666,2.492l8.288,5.553-3.189,2.136-6.923-4.6a1.5,1.5,0,0,0-1.666,2.492l7.512,5a1.471,1.471,0,0,0,.47.311l17.124,11.384a1.486,1.486,0,0,0,1.862.166l25.425-17.034a1.5,1.5,0,0,0,.412-2.081" transform="translate(-389 -375.121)" fill="#487B2F"/></svg>